<?xml version="1.0" encoding="utf-8"?>
<!-- Generator: Adobe Illustrator 26.3.1, SVG Export Plug-In . SVG Version: 6.00 Build 0)  -->
<svg version="1.1" id="Layer_1" xmlns="http://www.w3.org/2000/svg" xmlns:xlink="http://www.w3.org/1999/xlink" x="0px" y="0px"
	 viewBox="0 0 264 280" style="enable-background:new 0 0 264 280;" xml:space="preserve">
<style type="text/css">
	.st0{fill:#F86700;}
	.st1{fill:#48A3A5;}
	.st2{fill:#56B9BF;}
	.st3{opacity:0.29;fill:#666666;}
	.st4{fill:#DDEAEB;}
	.st5{fill:#9B5A05;}
	.st6{fill:#DFC8A5;}
</style>
<g>
	<ellipse transform="matrix(0.1484 -0.9889 0.9889 0.1484 -25.6082 250.2569)" class="st0" cx="132.5" cy="140" rx="131" ry="131"/>
	<g>
		<rect x="63.09" y="128.92" class="st1" width="138.81" height="75.16"/>
		<rect x="58.74" y="111.13" class="st2" width="147.52" height="44.17"/>
		<polygon class="st1" points="205.24,111.13 58.74,111.13 77.22,93.72 187.82,93.72 		"/>
		<path class="st2" d="M162.41,76.24h-56.47c-2.6,0-4.65,2.04-4.65,4.64v20.29h10.73V86.68h44.29v14.49h10.73V80.88
			C167.05,78.28,165.01,76.24,162.41,76.24z"/>
		<rect x="63.1" y="155.3" class="st3" width="138.81" height="7.62"/>
		<rect x="75.98" y="150.07" class="st4" width="19.31" height="21"/>
		<rect x="170.84" y="150.07" class="st4" width="19.3" height="21"/>
		<rect x="80.74" y="152.87" class="st1" width="9.78" height="13.72"/>
		<rect x="175.6" y="152.87" class="st1" width="9.78" height="13.72"/>
		<rect x="75.98" y="116.17" class="st3" width="19.31" height="29.47"/>
		<rect x="170.84" y="116.17" class="st3" width="19.3" height="29.47"/>
	</g>
	<path class="st5" d="M260.77,166.67C248.45,226.22,195.71,271,132.5,271c-0.84,0-1.69,0-2.53-0.03l-66.89-66.89h138.81V155.3h4.36
		v-43.14L260.77,166.67z"/>
	<rect x="112.04" y="86.69" class="st6" width="44.3" height="7.05"/>
	<path class="st6" d="M167.04,93.73V80.88c0-1.16-0.4-2.18-1.08-2.98l15.84,15.84H167.04z"/>
</g>
</svg>
